<svg xmlns="http://www.w3.org/2000/svg" viewBox="0 0 30.62 29.35"><defs><style>.cls-1{fill:#fefefe;}.cls-2{fill:#258bcb;}.cls-3{fill:#edf5fa;}.cls-4{fill:#f1f7fb;}</style></defs><title>person</title><g id="Layer_2" data-name="Layer 2"><g id="Layer_1-2" data-name="Layer 1"><path class="cls-1" d="M15.2,28.64c-4.81,0-11.79,1.89-13.88-.49C-1.13,25.34.58,18.82.58,13.91.57,9.49-1,3.68,1.25,1.07,3-1.05,9.36.64,13.68.64c4.81,0,9.63.15,14.43-.07,2.23-.1,2.54.56,2.51,2.6q-.22,11.45,0,22.9c0,2-.18,2.77-2.47,2.64C23.84,28.47,19.52,28.64,15.2,28.64Z"/><path class="cls-2" d="M14.83,26.64C.65,26.46,2.58,28.55,2.6,14.58,2.63-.48.44,1.73,15.5,1.67c13.65,0,12-1.71,12.07,11.82,0,.17,0,.33,0,.5C27.37,28.67,29.58,26.45,14.83,26.64Z"/><path class="cls-3" d="M15,22.52c-1.82,0-3.64.05-5.46,0-1.06,0-2.48.4-2.76-1.3-.19-1.15.66-1.79,1.42-2.43,3.2-2.68,10.32-2.66,13.55,0,.88.74,1.93,1.51,1.33,2.87-.51,1.17-1.69.79-2.62.82C18.69,22.57,16.87,22.52,15,22.52Z"/><path class="cls-4" d="M14.69,5.79c2.65.21,4.23,1.56,4.42,4a3.83,3.83,0,0,1-3.72,4.38c-2.76.26-4.4-1.56-4.52-4.13S12.46,6.22,14.69,5.79Z"/></g></g></svg>